<?xml version="1.0" standalone="no"?>
<!DOCTYPE svg PUBLIC "-//W3C//DTD SVG 20010904//EN"
 "http://www.w3.org/TR/2001/REC-SVG-20010904/DTD/svg10.dtd">
<svg version="1.0" xmlns="http://www.w3.org/2000/svg"
 width="512.000000pt" height="512.000000pt" viewBox="0 0 512.000000 512.000000"
 preserveAspectRatio="xMidYMid meet">
<metadata>
Created by potrace 1.11, written by Peter Selinger 2001-2013
</metadata>
<g transform="translate(0.000000,512.000000) scale(0.100000,-0.100000)"
fill="#000000" stroke="none">
<path d="M0 2560 l0 -2560 2560 0 2560 0 0 2560 0 2560 -2560 0 -2560 0 0
-2560z m2871 1752 c86 -35 148 -80 195 -145 64 -87 84 -161 84 -315 0 -115 -2
-128 -22 -149 -28 -30 -80 -31 -108 -1 -18 19 -20 35 -20 140 0 93 -4 128 -20
171 -23 62 -76 117 -140 146 -44 20 -62 21 -870 21 l-825 0 -50 -24 c-56 -26
-98 -70 -126 -131 -17 -38 -19 -88 -19 -859 0 -599 3 -829 12 -858 15 -50 78
-123 132 -150 34 -19 64 -23 184 -28 127 -4 145 -7 158 -24 22 -31 17 -79 -10
-105 -23 -22 -30 -23 -168 -19 -117 3 -153 8 -198 26 -111 44 -193 128 -242
250 l-23 57 -3 795 c-3 841 -1 892 43 988 52 113 185 214 307 232 29 4 418 7
863 6 l810 -1 56 -23z m1199 -1190 c113 -46 196 -129 242 -242 l23 -55 3 -810
c2 -560 0 -830 -8 -874 -29 -170 -159 -304 -328 -340 -37 -8 -295 -11 -850
-10 -718 0 -803 2 -862 17 -124 33 -229 127 -282 252 l-23 55 -3 829 c-3 916
-4 896 61 1005 36 59 102 123 160 152 94 48 88 48 977 46 l835 -2 55 -23z"/>
<path d="M2314 2982 c-88 -31 -144 -89 -170 -178 -12 -44 -14 -168 -12 -855 3
-792 3 -805 24 -849 11 -25 40 -62 64 -83 84 -77 19 -72 940 -72 l825 0 51 27
c57 30 105 80 132 136 16 34 17 97 17 857 0 937 5 877 -87 960 -87 78 -48 75
-942 75 -727 -1 -795 -2 -842 -18z"/>
</g>
</svg>
